# xmcd
# 
# Track frame offsets:
#     150
#     23518
#     49238
#     71356
#     91149
#     112923
#     144984
#     161641
#     179741
#     199888
# 
# Disc length: 2982
# 
# Revision: 1
# Processed by: cddbd v1.5.2PL0 Copyright (c) Steve Scherf et al.
# Submitted via: fre:ac v1.0.31
# 
DISCID=810ba40a
DTITLE=BINOMIO DE ORO - FUERA DE SERIE 1982
DYEAR=1982
DGENRE=VALLENATO
TTITLE0=ENAMORADO DE TI
TTITLE1=SOY AMIGO DEL AMOR
TTITLE2=EL CONQUISTADOR
TTITLE3=NAVIDAD
TTITLE4=LLENO DE TI
TTITLE5=MOSAICO BINOMIO No.2
TTITLE6=DE NUEVO EN TU VENTANA
TTITLE7=CUANDO DECIDAS
TTITLE8=COMPLACIENDO A MI GENTE
TTITLE9=CON LAS FRASES MIAS
EXTD=
EXTT0=
EXTT1=
EXTT2=
EXTT3=
EXTT4=
EXTT5=
EXTT6=
EXTT7=
EXTT8=
EXTT9=
PLAYORDER=
